<?xml version="1.0" standalone="no"?>
<svg viewBox="0 0 200 200" xmlns="http://www.w3.org/2000/svg">
  <path fill="#FFC75F" d="M22.8,-39.2C34.3,-28,51.8,-29.8,62.3,-23.5C72.9,-17.2,76.6,-2.8,71.4,7.9C66.2,18.7,52.1,25.8,40.3,29.4C28.6,33,19.1,33,11.3,32.7C3.4,32.5,-2.9,31.9,-10.7,31.8C-18.5,31.6,-27.8,31.9,-34.6,27.9C-41.3,23.8,-45.5,15.5,-54,3.5C-62.4,-8.6,-75,-24.3,-72.1,-33.8C-69.2,-43.4,-50.6,-46.7,-36,-56.4C-21.4,-66.2,-10.7,-82.3,-2.5,-78.4C5.6,-74.4,11.2,-50.3,22.8,-39.2Z" transform="translate(100 100)" />
</svg>
