<?xml version="1.0" standalone="no"?>
<svg viewBox="0 0 200 200" xmlns="http://www.w3.org/2000/svg">
  <path fill="#FF0066" d="M38.7,-61.2C53,-51.1,69.2,-45.1,74.1,-34C78.9,-22.9,72.4,-6.7,66.6,7.2C60.9,21,55.9,32.6,47.8,40.7C39.6,48.7,28.3,53.3,18.6,50.3C8.8,47.2,0.6,36.5,-4.4,28.8C-9.5,21,-11.4,16.3,-23.4,13.9C-35.5,11.5,-57.7,11.5,-61.2,7C-64.7,2.4,-49.5,-6.6,-43.8,-20.4C-38.1,-34.1,-41.9,-52.7,-36.2,-66.7C-30.5,-80.7,-15.2,-90.3,-1.5,-87.9C12.2,-85.6,24.5,-71.4,38.7,-61.2Z" transform="translate(100 100)" />
</svg>
