<?xml version="1.0" standalone="no"?>
<svg viewBox="0 0 200 200" xmlns="http://www.w3.org/2000/svg">
  <path fill="#FF0066" d="M29.8,-35C44,-37.2,64.6,-38.1,76.9,-29.7C89.2,-21.3,93.1,-3.7,80.8,4.5C68.6,12.6,40.1,11.3,26.4,17.5C12.7,23.6,13.8,37.2,9.6,43.4C5.4,49.5,-4.2,48.1,-12.3,44.5C-20.4,40.9,-27,35,-37.3,29C-47.6,23.1,-61.6,17,-67.5,6.8C-73.4,-3.3,-71.3,-17.4,-63.3,-26.4C-55.3,-35.4,-41.5,-39.3,-30,-38.3C-18.5,-37.3,-9.2,-31.5,-0.7,-30.4C7.8,-29.2,15.6,-32.8,29.8,-35Z" transform="translate(100 100)" />
</svg>
